<svg xmlns="http://www.w3.org/2000/svg" width="30" height="30" viewBox="0 0 30 30">
    <path fill="#22BF95" fill-rule="evenodd" d="M22.641 17.21c0-.919.752-1.664 1.68-1.664.928 0 1.679.745 1.679 1.665 0 .919-.751 1.664-1.68 1.664-.926 0-1.679-.745-1.679-1.664zm1.68-6.895c-.927 0-1.68-.747-1.68-1.666 0-.92.752-1.665 1.68-1.665.928 0 1.679.746 1.679 1.665 0 .92-.751 1.666-1.68 1.666zm-6.367.346c0-.92.751-1.665 1.68-1.665.927 0 1.679.746 1.679 1.665 0 .92-.752 1.665-1.68 1.665-.928 0-1.679-.746-1.679-1.665zm-8.327 11.01c.927 0 1.68.746 1.68 1.664 0 .92-.753 1.665-1.68 1.665-.928 0-1.68-.746-1.68-1.665 0-.918.752-1.664 1.68-1.664zm6.647-12.675c-.927 0-1.68-.745-1.68-1.665 0-.919.753-1.664 1.68-1.664.928 0 1.68.745 1.68 1.664 0 .92-.752 1.665-1.68 1.665zm3.36 4.578c.927 0 1.679.745 1.679 1.665 0 .919-.752 1.665-1.68 1.665-.928 0-1.679-.746-1.679-1.665 0-.92.752-1.665 1.68-1.665zm-7.908 3.33c.928 0 1.68.746 1.68 1.665s-.752 1.664-1.68 1.664c-.927 0-1.679-.745-1.679-1.664 0-.92.752-1.665 1.68-1.665zm6.627 4.767c.928 0 1.68.746 1.68 1.664 0 .92-.752 1.665-1.68 1.665-.927 0-1.68-.746-1.68-1.665 0-.918.753-1.664 1.68-1.664zm0-17.341c-.927 0-1.68-.746-1.68-1.665 0-.92.753-1.665 1.68-1.665.928 0 1.68.745 1.68 1.665s-.752 1.665-1.68 1.665zM8.367 16.904A1.672 1.672 0 0 1 6.69 15.24c0-.92.751-1.665 1.678-1.665.928 0 1.68.745 1.68 1.665 0 .919-.752 1.665-1.68 1.665zm-4.688-6.59C2.752 10.315 2 9.569 2 8.65c0-.92.752-1.665 1.68-1.665.927 0 1.679.746 1.679 1.665 0 .92-.752 1.666-1.68 1.666zm0 8.561C2.752 18.875 2 18.13 2 17.211c0-.92.752-1.665 1.68-1.665.927 0 1.679.745 1.679 1.665 0 .919-.752 1.664-1.68 1.664zm4.688-6.55a1.672 1.672 0 0 1-1.678-1.664c0-.92.751-1.665 1.678-1.665.928 0 1.68.746 1.68 1.665 0 .92-.752 1.665-1.68 1.665zm7.907 7.908c-.927 0-1.68-.745-1.68-1.664 0-.92.753-1.665 1.68-1.665.928 0 1.68.746 1.68 1.665s-.752 1.664-1.68 1.664zM10.047 7.331c0-.919.752-1.664 1.68-1.664.927 0 1.679.745 1.679 1.664 0 .92-.752 1.665-1.68 1.665-.927 0-1.679-.745-1.679-1.665zm-.42-3.001c-.928 0-1.68-.746-1.68-1.664C7.948 1.746 8.7 1 9.628 1c.927 0 1.68.745 1.68 1.665s-.753 1.665-1.68 1.665z"/>
</svg>
