<svg xmlns="http://www.w3.org/2000/svg" width="30" height="30" viewBox="0 0 30 30">
    <path fill="#22BF95" fill-rule="evenodd" d="M2 20.449a.96.96 0 0 1 .614-.945l1.644-.61 7.422 2.028a4.238 4.238 0 0 0 2.531-.095l10.44-3.704 1.622.375a.952.952 0 0 1 .726.883.96.96 0 0 1-.627.96l-12.71 4.51a2.58 2.58 0 0 1-1.55.058L2.69 21.335a.953.953 0 0 1-.69-.886zm0-4.668a.96.96 0 0 1 .614-.944l1.644-.611 7.422 2.028a4.223 4.223 0 0 0 2.531-.095l10.44-3.704 1.622.376a.951.951 0 0 1 .726.882.96.96 0 0 1-.627.96l-12.71 4.51a2.581 2.581 0 0 1-1.55.058l-9.42-2.574A.953.953 0 0 1 2 15.78zm12.211-4.29l10.44-3.703 1.622.375a.951.951 0 0 1 .726.883.96.96 0 0 1-.627.96l-12.71 4.51a2.615 2.615 0 0 1-1.55.057L2.692 12A.953.953 0 0 1 2 11.114a.959.959 0 0 1 .614-.944l1.644-.612 7.422 2.028a4.238 4.238 0 0 0 2.531-.095zM2.691 7.33A.953.953 0 0 1 2 6.447a.96.96 0 0 1 .613-.945L14.29 1.162a2.605 2.605 0 0 1 1.487-.095l10.496 2.428a.952.952 0 0 1 .726.882.96.96 0 0 1-.627.961l-12.71 4.51a2.615 2.615 0 0 1-1.55.058L2.69 7.332z"/>
</svg>
