<svg xmlns="http://www.w3.org/2000/svg" width="200" height="69" viewBox="0 0 200 69">
    <g fill="#1A1A1A" fill-rule="nonzero">
        <path d="M21.533 43.573l-2.36-.39c-5.025-.806-8.638-1.794-8.638-4.841 0-3.174 3.347-5.025 8.008-5.025 4.085 0 7.688 1.213 10.771 2.914l5.04-6.17c-5.276-3.139-10.098-4.46-15.987-4.46-8.912 0-16.684 4.542-16.684 13.27 0 7.601 5.382 10.805 12.764 11.993l2.659.417c5.829.955 8.886 2.01 8.886 4.907 0 3.224-3.562 5.05-8.223 5.05a22.47 22.47 0 0 1-12.616-3.977L.106 63.455c4.484 3.613 11.26 5.465 17.63 5.465 9.003 0 17.133-4.425 17.133-13.629 0-7.266-5.829-10.522-13.336-11.718zM59.477 46.734l17.55-20.415H66.564L52.726 43.27h-3.945V26.324h-8.346v41.85h8.346V50.956h3.855l14.89 17.216h10.82zM152.987 26.324v24.724c0 6.844-3.92 9.892-9.658 9.892-5.739 0-9.66-3.048-9.66-9.892V26.324h-8.362V51.45c0 11.57 7.384 17.457 18.022 17.457 10.638 0 18.03-5.887 18.03-17.457V26.324h-8.372zM165.533 26.324v7.79h12.972v34.06h8.347v-34.05h12.972v-7.79z"/>
        <path d="M98.04 25.545a21.704 21.704 0 1 0 21.704 21.691c-.007-11.981-9.722-21.69-21.704-21.69zm0 34.98a13.279 13.279 0 1 1-.025-26.558 13.279 13.279 0 0 1 .025 26.558zM3.769 10.721H1.68V.251h4.271c2.498 0 3.83 1.302 3.83 3.327S8.45 6.889 5.966 6.889H3.77v3.832zm0-5.736h2.146c1.143 0 1.726-.455 1.726-1.405s-.583-1.404-1.726-1.404H3.769v2.809zM23.13 5.487c0 3.134-2.28 5.428-5.502 5.428-3.221 0-5.497-2.294-5.497-5.428 0-3.133 2.261-5.43 5.497-5.43 3.236 0 5.503 2.297 5.503 5.43zm-8.823 0c0 2.033 1.399 3.425 3.321 3.425 1.922 0 3.32-1.392 3.32-3.425 0-2.032-1.385-3.424-3.32-3.424-1.935 0-3.321 1.39-3.321 3.424zM35.176 10.721l-2.261-7.477-2.242 7.477h-2.532L25.025.251h2.168l2.262 8.04 2.339-8.04h2.312l2.326 8.04 2.261-8.04h2.131l-3.136 10.47zM43.48 10.721V.251h7.761v1.915h-5.676v2.316h5.415v1.915h-5.415v2.407h5.737v1.915zM63.357 3.437c0 1.721-1.196 2.887-3.206 3.088l3.22 4.196h-2.527L57.79 6.555h-.613v4.166H55.09V.251h4.433c2.497 0 3.834 1.184 3.834 3.186zM57.18 4.74h2.304c1.143 0 1.726-.41 1.726-1.302 0-.892-.613-1.256-1.726-1.256H57.18v2.558zM66.834 10.721V.251h7.761v1.915h-5.668v2.316h5.412v1.915h-5.412v2.407h5.734v1.915zM88.204 5.487c0 3.156-2.169 5.234-5.435 5.234h-4.314V.251h4.314c3.266 0 5.435 2.08 5.435 5.236zM80.54 8.77h2.206c2.206 0 3.267-1.39 3.267-3.282 0-1.892-1.068-3.281-3.267-3.281H80.54v6.563zM105.568 3.156a2.337 2.337 0 0 1-1.508 2.218 2.513 2.513 0 0 1 1.742 2.35c0 2.01-1.428 2.997-3.94 2.997h-4.523V.251h4.272c2.424 0 3.957.907 3.957 2.905zm-6.161 1.382h2.138c1.04 0 1.847-.216 1.847-1.234s-.822-1.211-1.854-1.211h-2.131v2.445zm0 4.344h2.34c1.158 0 1.876-.269 1.876-1.271 0-1.003-.718-1.257-1.877-1.257h-2.339v2.528zM113.683 10.721h-2.085V6.585l-4.02-6.331h2.452l2.633 4.442 2.62-4.445h2.378l-3.978 6.342z"/>
    </g>
</svg>
