<svg xmlns="http://www.w3.org/2000/svg" width="200" height="70" viewBox="0 0 200 70">
    <g fill="#FFF" fill-rule="nonzero">
        <path d="M38.638 60.508l-1.799 1.1a3.143 3.143 0 0 0-2.716-1.447c-1.897 0-3.314 1.394-3.314 3.434 0 2.109 1.462 3.438 3.314 3.438 1.1.024 2.136-.52 2.739-1.443l1.708 1.232c-.944 1.364-2.512 2.22-4.432 2.22-3.241 0-5.512-2.288-5.512-5.447 0-3.158 2.26-5.444 5.512-5.444 1.942 0 3.638.894 4.5 2.357zM45.729 68.844h-2.093v-4.146l-4.043-6.351h2.46l2.65 4.467 2.639-4.455h2.387l-4 6.347zM60.302 61.256a2.344 2.344 0 0 1-1.523 2.229 2.513 2.513 0 0 1 1.759 2.354c0 2.01-1.432 3.015-3.953 3.015h-4.557V58.347h4.289c2.444 0 3.985.907 3.985 2.91zm-6.179 1.387h2.143c1.043 0 1.855-.216 1.855-1.236s-.827-1.216-1.862-1.216h-2.136v2.452zm0 4.36h2.347c1.163 0 1.882-.27 1.882-1.274 0-1.005-.719-1.257-1.882-1.257h-2.35l.003 2.53zM64.322 68.844V58.347h7.789v1.92h-5.709v2.323h5.43v1.923h-5.43v2.414h5.751v1.917zM84.518 61.54c0 1.726-1.199 2.897-3.216 3.098l3.23 4.206h-2.535l-3.06-4.178h-.613v4.178h-2.093V58.347h4.44c2.495 0 3.847 1.183 3.847 3.193zm-6.194 1.307h2.31c1.147 0 1.733-.412 1.733-1.307 0-.894-.616-1.256-1.734-1.256h-2.309v2.563zM91.791 60.1c-1.17 0-2.01.465-2.01 1.257 0 .791.907 1.005 2.166 1.213l.593.098c1.882.302 3.347 1.118 3.347 2.94 0 2.312-2.04 3.42-4.3 3.42-1.597 0-3.298-.463-4.424-1.372l1.088-1.686a5.585 5.585 0 0 0 3.344 1.13c1.171 0 2.063-.457 2.063-1.256 0-.728-.753-.99-2.228-1.23l-.666-.106c-1.854-.3-3.204-1.101-3.204-3.016 0-2.19 1.95-3.331 4.186-3.331a7.374 7.374 0 0 1 4.02 1.118l-.99 1.708a5.673 5.673 0 0 0-2.985-.886zM99.332 68.844V58.347h7.789v1.92h-5.696v2.323h5.43v1.923h-5.43v2.414h5.753v1.917zM120.075 60.508l-1.801 1.1a3.138 3.138 0 0 0-2.714-1.447c-1.897 0-3.316 1.394-3.316 3.434 0 2.109 1.462 3.438 3.316 3.438a3.18 3.18 0 0 0 2.736-1.443l1.712 1.232c-.945 1.364-2.513 2.22-4.433 2.22-3.24 0-5.512-2.288-5.512-5.447 0-3.158 2.261-5.444 5.512-5.444 1.943 0 3.639.894 4.5 2.357zM127.415 69.033c-2.671 0-4.523-1.478-4.523-4.38v-6.306h2.098v6.203c0 1.716.982 2.483 2.425 2.483 1.442 0 2.422-.767 2.422-2.483v-6.203h2.1v6.306c0 2.902-1.854 4.38-4.522 4.38zM144.166 61.54c0 1.726-1.201 2.897-3.219 3.098l3.234 4.206h-2.535l-3.06-4.178h-.616v4.178h-2.093V58.347h4.442c2.505 0 3.847 1.183 3.847 3.193zm-6.196 1.307h2.311c1.146 0 1.732-.412 1.732-1.307 0-.894-.616-1.256-1.732-1.256h-2.311v2.563zM148.1 68.844V58.347h2.093v10.497zM158.666 60.302v8.542h-2.093v-8.542h-3.266v-1.958h8.603v1.958zM169.347 68.844h-2.09v-4.146l-4.043-6.351h2.46l2.65 4.467 2.638-4.455h2.387l-4.002 6.347zM21.533 18.148l-2.36-.392c-5.025-.804-8.638-1.794-8.638-4.841 0-3.174 3.347-5.026 8.008-5.026 4.085 0 7.688 1.214 10.771 2.918l5.04-6.171C29.078 1.495 24.256.176 18.367.176 9.455.176 1.683 4.719 1.683 13.447c0 7.598 5.382 10.804 12.764 11.993l2.659.414c5.829.955 8.886 2.01 8.886 4.91 0 3.22-3.562 5.048-8.223 5.048a22.47 22.47 0 0 1-12.616-3.978L.106 38.03c4.484 3.613 11.26 5.465 17.63 5.465 9.003 0 17.133-4.427 17.133-13.628 0-7.269-5.829-10.52-13.336-11.719zM59.477 21.312L77.027.897H66.564L52.726 17.839h-3.945V.897h-8.346v41.85h8.346V25.53h3.855l14.89 17.216h10.82zM152.987.897v24.731c0 6.842-3.92 9.89-9.658 9.89-5.739 0-9.66-3.053-9.66-9.89V.897h-8.362v25.14c0 11.558 7.384 17.458 18.022 17.458 10.638 0 18.03-5.89 18.03-17.457V.897h-8.372zM165.533.897v7.789h12.972v34.06h8.347V8.696h12.972V.907z"/>
        <path d="M98.04.12c-11.985.002-21.7 9.718-21.698 21.703 0 11.985 9.717 21.7 21.702 21.7 11.984 0 21.7-9.717 21.7-21.701C119.742 9.836 110.026.12 98.04.12zm0 34.978a13.279 13.279 0 1 1 13.267-13.276c0 7.329-5.938 13.272-13.267 13.276z"/>
    </g>
</svg>
